<svg xmlns="http://www.w3.org/2000/svg" viewBox="0 0 607 216.72403" width="150" fill="rgb(166, 21, 27)">
  <path d="M270.25745,38.85491V177.86913h24.17638c12.95164,0,24.17638-4.31721,31.08391-13.81508,7.771-9.49787,11.22474-21.58606,11.22474-36.26458V88.93456c0-14.67852-3.45378-26.76671-11.22474-36.26458s-18.13228-13.81508-31.08391-13.81508Zm-50.9431,177.00568V0h77.70983c25.03984,0,46.6259,8.63442,63.89475,25.03983S386.8222,63.03129,386.8222,88.93456v38.85491c0,25.90326-8.63442,47.48932-25.90327,63.89474S322.92745,216.724,297.02418,216.724H219.31435Z" />
  <polygon points="497.343 129.516 474.03 129.516 474.03 215.861 423.95 215.861 423.95 0 474.03 0 474.03 84.617 491.299 84.617 538.788 0 600.956 0 534.471 97.569 607 215.861 545.696 215.861 497.343 129.516"/>
  <polygon points="123.472 0 69.939 0 0 215.861 50.08 215.861 95.842 57.851 96.706 57.851 143.331 215.861 193.411 215.861 123.472 0"/>
</svg>