<svg height="2612" viewBox="0 0 2211 2612" width="2211" xmlns="http://www.w3.org/2000/svg"><g fill="#f9873d" opacity=".247768" transform="matrix(-.92718385028 -.37460659082 .37460659082 -.92718385028 881.29125116269 2526.03391890856)"><circle cx="264.487373" cy="17" r="10.5"/><circle cx="264.487373" cy="74.982756" r="10.5"/><circle cx="265.19448" cy="133.672619" r="10.5"/><circle cx="264.487373" cy="192.362482" r="10.5"/><circle cx="264.487373" cy="250.345238" r="10.5"/><circle cx="265.19448" cy="309.035101" r="10.5"/><circle cx="264.487373" cy="367.724964" r="10.5"/><circle cx="264.487373" cy="425.70772" r="10.5"/><circle cx="265.19448" cy="484.397583" r="10.5"/><circle cx="264.487373" cy="543.087446" r="10.5"/><circle cx="264.487373" cy="601.070202" r="10.5"/><circle cx="265.19448" cy="659.760064" r="10.5"/><circle cx="264.487373" cy="718.449927" r="10.5"/><circle cx="264.487373" cy="776.432683" r="10.5"/><circle cx="265.19448" cy="835.122546" r="10.5"/><circle cx="264.487373" cy="893.812409" r="10.5"/><circle cx="264.487373" cy="951.795165" r="10.5"/><circle cx="264.487373" cy="1009.77792" r="10.5"/><circle cx="265.19448" cy="1068.46779" r="10.5"/><circle cx="264.487373" cy="1127.15765" r="10.5"/><circle cx="264.487373" cy="1185.1404" r="10.5"/><circle cx="265.19448" cy="1243.83027" r="10.5"/><circle cx="264.487373" cy="1302.52013" r="10.5"/><circle cx="264.487373" cy="1360.50289" r="10.5"/><circle cx="265.19448" cy="1419.19275" r="10.5"/><circle cx="264.487373" cy="1477.88261" r="10.5"/><circle cx="264.487373" cy="1535.86537" r="10.5"/><circle cx="265.19448" cy="1594.55523" r="10.5"/><circle cx="264.487373" cy="1653.24509" r="10.5"/><circle cx="264.487373" cy="1711.22785" r="10.5"/><circle cx="265.19448" cy="1769.91771" r="10.5"/><circle cx="264.487373" cy="1828.60758" r="10.5"/><circle cx="264.487373" cy="1886.59033" r="10.5"/><circle cx="265.19448" cy="1945.28019" r="10.5"/><circle cx="318.227488" cy="17" r="8.5"/><circle cx="367.724963" cy="16.292893" r="7"/><circle cx="413.686904" cy="17" r="5"/><circle cx="456.820418" cy="17" r="3.5"/><circle cx="496.418397" cy="17" r="1.5"/><circle cx="496.418397" cy="74.982756" r="1.5"/><circle cx="497.125504" cy="133.672619" r="1.5"/><circle cx="496.418397" cy="192.362482" r="1.5"/><circle cx="496.418397" cy="250.345238" r="1.5"/><circle cx="497.125504" cy="309.035101" r="1.5"/><circle cx="496.418397" cy="367.724964" r="1.5"/><circle cx="496.418397" cy="425.70772" r="1.5"/><circle cx="497.125504" cy="484.397583" r="1.5"/><circle cx="496.418397" cy="543.087446" r="1.5"/><circle cx="496.418397" cy="601.070202" r="1.5"/><circle cx="497.125504" cy="659.760064" r="1.5"/><circle cx="496.418397" cy="718.449927" r="1.5"/><circle cx="496.418397" cy="776.432683" r="1.5"/><circle cx="496.418397" cy="834.415439" r="1.5"/><circle cx="496.418397" cy="893.812409" r="1.5"/><circle cx="496.418397" cy="951.795165" r="1.5"/><circle cx="496.418397" cy="1009.77792" r="1.5"/><circle cx="496.418397" cy="1069.17489" r="1.5"/><circle cx="496.418397" cy="1127.15765" r="1.5"/><circle cx="496.418397" cy="1185.1404" r="1.5"/><circle cx="496.418397" cy="1244.53737" r="1.5"/><circle cx="496.418397" cy="1302.52013" r="1.5"/><circle cx="496.418397" cy="1360.50289" r="1.5"/><circle cx="497.125504" cy="1419.19275" r="1.5"/><circle cx="496.418397" cy="1477.88261" r="1.5"/><circle cx="496.418397" cy="1535.86537" r="1.5"/><circle cx="497.125504" cy="1594.55523" r="1.5"/><circle cx="496.418397" cy="1653.24509" r="1.5"/><circle cx="496.418397" cy="1711.22785" r="1.5"/><circle cx="497.125504" cy="1769.91771" r="1.5"/><circle cx="496.418397" cy="1828.60758" r="1.5"/><circle cx="496.418397" cy="1886.59033" r="1.5"/><circle cx="496.418397" cy="1944.57309" r="1.5"/><circle cx="496.418397" cy="2003.97006" r="1.5"/><circle cx="496.418397" cy="2061.95281" r="1.5"/><circle cx="496.418397" cy="2119.93557" r="1.5"/><circle cx="496.418397" cy="2179.33254" r="1.5"/><circle cx="496.418397" cy="2237.3153" r="1.5"/><circle cx="496.418397" cy="2295.29805" r="1.5"/><circle cx="496.418397" cy="2354.69502" r="1.5"/><circle cx="496.418397" cy="2412.67778" r="1.5"/><circle cx="456.820418" cy="74.982756" r="3.5"/><circle cx="457.527524" cy="133.672619" r="3.5"/><circle cx="456.820418" cy="192.362482" r="3.5"/><circle cx="456.820418" cy="250.345238" r="3.5"/><circle cx="457.527524" cy="309.035101" r="3.5"/><circle cx="456.820418" cy="367.724964" r="3.5"/><circle cx="456.820418" cy="425.70772" r="3.5"/><circle cx="457.527524" cy="484.397583" r="3.5"/><circle cx="456.820418" cy="543.087446" r="3.5"/><circle cx="456.820418" cy="601.070202" r="3.5"/><circle cx="457.527524" cy="659.760064" r="3.5"/><circle cx="456.820418" cy="718.449927" r="3.5"/><circle cx="456.820418" cy="776.432683" r="3.5"/><circle cx="457.527524" cy="835.122546" r="3.5"/><circle cx="456.820418" cy="893.812409" r="3.5"/><circle cx="456.820418" cy="951.795165" r="3.5"/><circle cx="456.820418" cy="1009.77792" r="3.5"/><circle cx="457.527524" cy="1068.46779" r="3.5"/><circle cx="456.820418" cy="1127.15765" r="3.5"/><circle cx="456.820418" cy="1185.1404" r="3.5"/><circle cx="457.527524" cy="1243.83027" r="3.5"/><circle cx="456.820418" cy="1302.52013" r="3.5"/><circle cx="456.820418" cy="1360.50289" r="3.5"/><circle cx="457.527524" cy="1419.19275" r="3.5"/><circle cx="456.820418" cy="1477.88261" r="3.5"/><circle cx="456.820418" cy="1535.86537" r="3.5"/><circle cx="457.527524" cy="1594.55523" r="3.5"/><circle cx="456.820418" cy="1653.24509" r="3.5"/><circle cx="456.820418" cy="1711.22785" r="3.5"/><circle cx="457.527524" cy="1769.91771" r="3.5"/><circle cx="456.820418" cy="1828.60758" r="3.5"/><circle cx="456.820418" cy="1886.59033" r="3.5"/><circle cx="457.527524" cy="1945.28019" r="3.5"/><circle cx="414.394011" cy="75.689863" r="5"/><circle cx="414.394011" cy="133.672619" r="5"/><circle cx="413.686904" cy="192.362482" r="5"/><circle cx="414.394011" cy="251.052345" r="5"/><circle cx="414.394011" cy="309.035101" r="5"/><circle cx="413.686904" cy="367.724964" r="5"/><circle cx="413.686904" cy="425.70772" r="5"/><circle cx="414.394011" cy="484.397583" r="5"/><circle cx="414.394011" cy="542.380339" r="5"/><circle cx="413.686904" cy="601.070202" r="5"/><circle cx="414.394011" cy="659.760064" r="5"/><circle cx="414.394011" cy="717.74282" r="5"/><circle cx="413.686904" cy="776.432683" r="5"/><circle cx="414.394011" cy="835.122546" r="5"/><circle cx="414.394011" cy="893.105302" r="5"/><circle cx="413.686904" cy="951.795165" r="5"/><circle cx="414.394011" cy="1010.48503" r="5"/><circle cx="414.394011" cy="1068.46779" r="5"/><circle cx="413.686904" cy="1127.15765" r="5"/><circle cx="414.394011" cy="1185.84751" r="5"/><circle cx="414.394011" cy="1243.83027" r="5"/><circle cx="413.686904" cy="1302.52013" r="5"/><circle cx="414.394011" cy="1361.20999" r="5"/><circle cx="414.394011" cy="1419.19275" r="5"/><circle cx="413.686904" cy="1477.88261" r="5"/><circle cx="413.686904" cy="1535.86537" r="5"/><circle cx="414.394011" cy="1594.55523" r="5"/><circle cx="413.686904" cy="1653.24509" r="5"/><circle cx="413.686904" cy="1711.22785" r="5"/><circle cx="414.394011" cy="1769.91771" r="5"/><circle cx="414.394011" cy="1827.90047" r="5"/><circle cx="413.686904" cy="1886.59033" r="5"/><circle cx="414.394011" cy="1945.28019" r="5"/><circle cx="318.227488" cy="74.982756" r="8.5"/><circle cx="367.724963" cy="75.689863" r="7"/><circle cx="317.520382" cy="133.672619" r="8.5"/><circle cx="367.724963" cy="133.672619" r="7"/><circle cx="318.227488" cy="192.362482" r="8.5"/><circle cx="367.724963" cy="191.655375" r="7"/><circle cx="318.227488" cy="250.345238" r="8.5"/><circle cx="367.724963" cy="251.052345" r="7"/><circle cx="317.520382" cy="309.035101" r="8.5"/><circle cx="367.724963" cy="310.449315" r="7"/><circle cx="318.227488" cy="367.724964" r="8.5"/><circle cx="367.724963" cy="367.017857" r="7"/><circle cx="318.227488" cy="425.70772" r="8.5"/><circle cx="367.724963" cy="426.414827" r="7"/><circle cx="317.520382" cy="484.397583" r="8.5"/><circle cx="367.724963" cy="484.397583" r="7"/><circle cx="318.227488" cy="543.087446" r="8.5"/><circle cx="367.724963" cy="542.380339" r="7"/><circle cx="318.227488" cy="601.070202" r="8.5"/><circle cx="367.724963" cy="601.777308" r="7"/><circle cx="317.520382" cy="659.760064" r="8.5"/><circle cx="367.724963" cy="659.760064" r="7"/><circle cx="318.227488" cy="718.449927" r="8.5"/><circle cx="367.724963" cy="717.74282" r="7"/><circle cx="318.227488" cy="776.432683" r="8.5"/><circle cx="367.724963" cy="777.13979" r="7"/><circle cx="317.520382" cy="835.122546" r="8.5"/><circle cx="367.724963" cy="835.122546" r="7"/><circle cx="318.227488" cy="893.812409" r="8.5"/><circle cx="367.724963" cy="893.105302" r="7"/><circle cx="318.227488" cy="951.795165" r="8.5"/><circle cx="368.43207" cy="951.795165" r="7"/><circle cx="317.520382" cy="1010.48503" r="8.5"/><circle cx="367.724963" cy="1010.48503" r="7"/><circle cx="317.520382" cy="1068.46779" r="8.5"/><circle cx="367.724963" cy="1068.46779" r="7"/><circle cx="318.227488" cy="1127.15765" r="8.5"/><circle cx="367.724963" cy="1126.45054" r="7"/><circle cx="318.227488" cy="1185.1404" r="8.5"/><circle cx="367.724963" cy="1185.84751" r="7"/><circle cx="317.520382" cy="1243.83027" r="8.5"/><circle cx="367.724963" cy="1243.83027" r="7"/><circle cx="318.227488" cy="1302.52013" r="8.5"/><circle cx="318.227488" cy="1360.50289" r="8.5"/><circle cx="367.724963" cy="1301.81302" r="7"/><circle cx="317.520382" cy="1419.19275" r="8.5"/><circle cx="367.724963" cy="1361.20999" r="7"/><circle cx="318.227488" cy="1477.88261" r="8.5"/><circle cx="367.724963" cy="1419.19275" r="7"/><circle cx="318.227488" cy="1535.86537" r="8.5"/><circle cx="367.724963" cy="1477.17551" r="7"/><circle cx="317.520382" cy="1594.55523" r="8.5"/><circle cx="318.227488" cy="1653.24509" r="8.5"/><circle cx="367.724963" cy="1536.57248" r="7"/><circle cx="318.227488" cy="1711.22785" r="8.5"/><circle cx="367.724963" cy="1594.55523" r="7"/><circle cx="317.520382" cy="1769.91771" r="8.5"/><circle cx="367.724963" cy="1652.53799" r="7"/><circle cx="318.227488" cy="1828.60758" r="8.5"/><circle cx="367.724963" cy="1711.93496" r="7"/><circle cx="318.227488" cy="1886.59033" r="8.5"/><circle cx="367.724963" cy="1769.91771" r="7"/><circle cx="317.520382" cy="1945.28019" r="8.5"/><circle cx="367.724963" cy="1827.90047" r="7"/><circle cx="367.724963" cy="1887.29744" r="7"/><circle cx="367.724963" cy="1945.28019" r="7"/><circle cx="264.487373" cy="2412.67778" r="10.5"/><circle cx="456.820418" cy="2412.67778" r="3.5"/><circle cx="413.686904" cy="2412.67778" r="5"/><circle cx="318.227488" cy="2412.67778" r="8.5"/><circle cx="367.724963" cy="2411.97067" r="7"/><circle cx="208.625937" cy="2412.67778" r="12"/><circle cx="265.19448" cy="2353.98791" r="10.5"/><circle cx="317.520382" cy="2353.98791" r="8.5"/><circle cx="367.724963" cy="2353.98791" r="7"/><circle cx="207.918831" cy="2353.98791" r="12"/><circle cx="457.527524" cy="2353.98791" r="3.5"/><circle cx="414.394011" cy="2353.98791" r="5"/><circle cx="264.487373" cy="2295.29805" r="10.5"/><circle cx="456.820418" cy="2295.29805" r="3.5"/><circle cx="414.394011" cy="2296.00516" r="5"/><circle cx="318.227488" cy="2295.29805" r="8.5"/><circle cx="367.724963" cy="2296.00516" r="7"/><circle cx="207.918831" cy="2296.00516" r="12"/><circle cx="264.487373" cy="2237.3153" r="10.5"/><circle cx="456.820418" cy="2237.3153" r="3.5"/><circle cx="413.686904" cy="2237.3153" r="5"/><circle cx="318.227488" cy="2237.3153" r="8.5"/><circle cx="367.724963" cy="2236.60819" r="7"/><circle cx="208.625937" cy="2237.3153" r="12"/><circle cx="265.19448" cy="2178.62543" r="10.5"/><circle cx="207.918831" cy="2178.62543" r="12"/><circle cx="457.527524" cy="2178.62543" r="3.5"/><circle cx="414.394011" cy="2178.62543" r="5"/><circle cx="317.520382" cy="2178.62543" r="8.5"/><circle cx="367.724963" cy="2178.62543" r="7"/><circle cx="264.487373" cy="2119.93557" r="10.5"/><circle cx="456.820418" cy="2119.93557" r="3.5"/><circle cx="414.394011" cy="2120.64268" r="5"/><circle cx="317.520382" cy="2120.64268" r="8.5"/><circle cx="367.724963" cy="2120.64268" r="7"/><circle cx="207.918831" cy="2120.64268" r="12"/><circle cx="264.487373" cy="2061.95281" r="10.5"/><circle cx="318.227488" cy="2061.95281" r="8.5"/><circle cx="367.724963" cy="2062.65992" r="7"/><circle cx="208.625937" cy="2061.95281" r="12"/><circle cx="456.820418" cy="2061.95281" r="3.5"/><circle cx="413.686904" cy="2061.95281" r="5"/><circle cx="264.487373" cy="2003.97006" r="10.5"/><circle cx="456.820418" cy="2003.97006" r="3.5"/><circle cx="414.394011" cy="2003.26295" r="5"/><circle cx="318.227488" cy="2003.97006" r="8.5"/><circle cx="367.724963" cy="2003.26295" r="7"/><circle cx="207.918831" cy="2003.26295" r="12"/><circle cx="208.625937" cy="17" r="12"/><circle cx="148.521861" cy="17" r="13.5"/><circle cx="84.882251" cy="17" r="15.5"/><circle cx="17.707107" cy="17" r="17"/><circle cx="17.707107" cy="74.982756" r="17"/><circle cx="17" cy="133.672619" r="17"/><circle cx="17.707107" cy="192.362482" r="17"/><circle cx="17.707107" cy="250.345238" r="17"/><circle cx="17" cy="309.035101" r="17"/><circle cx="17.707107" cy="367.724964" r="17"/><circle cx="17.707107" cy="425.70772" r="17"/><circle cx="17" cy="484.397583" r="17"/><circle cx="17.707107" cy="543.087446" r="17"/><circle cx="17.707107" cy="601.070202" r="17"/><circle cx="17" cy="659.760064" r="17"/><circle cx="17.707107" cy="718.449927" r="17"/><circle cx="17.707107" cy="776.432683" r="17"/><circle cx="17" cy="835.122546" r="17"/><circle cx="17.707107" cy="893.812409" r="17"/><circle cx="17.707107" cy="951.795165" r="17"/><circle cx="17" cy="1010.48503" r="17"/><circle cx="17" cy="1068.46779" r="17"/><circle cx="17.707107" cy="1127.15765" r="17"/><circle cx="17.707107" cy="1185.1404" r="17"/><circle cx="17" cy="1243.83027" r="17"/><circle cx="17.707107" cy="1302.52013" r="17"/><circle cx="17.707107" cy="1360.50289" r="17"/><circle cx="17" cy="1419.19275" r="17"/><circle cx="17.707107" cy="1477.88261" r="17"/><circle cx="17.707107" cy="1535.86537" r="17"/><circle cx="17" cy="1594.55523" r="17"/><circle cx="17.707107" cy="1653.24509" r="17"/><circle cx="17.707107" cy="1711.22785" r="17"/><circle cx="17" cy="1769.91771" r="17"/><circle cx="17.707107" cy="1828.60758" r="17"/><circle cx="17.707107" cy="1886.59033" r="17"/><circle cx="17" cy="1945.28019" r="17"/><circle cx="17.707107" cy="2003.97006" r="17"/><circle cx="17.707107" cy="2061.95281" r="17"/><circle cx="17" cy="2120.64268" r="17"/><circle cx="17" cy="2178.62543" r="17"/><circle cx="17.707107" cy="2237.3153" r="17"/><circle cx="17.707107" cy="2295.29805" r="17"/><circle cx="17" cy="2353.98791" r="17"/><circle cx="17.707107" cy="2412.67778" r="17"/><circle cx="84.175144" cy="75.689863" r="15.5"/><circle cx="84.175144" cy="133.672619" r="15.5"/><circle cx="84.882251" cy="192.362482" r="15.5"/><circle cx="84.175144" cy="251.052345" r="15.5"/><circle cx="84.175144" cy="309.035101" r="15.5"/><circle cx="84.882251" cy="367.724964" r="15.5"/><circle cx="84.175144" cy="426.414827" r="15.5"/><circle cx="84.175144" cy="484.397583" r="15.5"/><circle cx="84.175144" cy="542.380339" r="15.5"/><circle cx="84.882251" cy="601.070202" r="15.5"/><circle cx="84.175144" cy="659.760064" r="15.5"/><circle cx="84.175144" cy="717.74282" r="15.5"/><circle cx="84.882251" cy="776.432683" r="15.5"/><circle cx="84.175144" cy="835.122546" r="15.5"/><circle cx="84.175144" cy="893.105302" r="15.5"/><circle cx="84.882251" cy="951.795165" r="15.5"/><circle cx="84.175144" cy="1010.48503" r="15.5"/><circle cx="84.175144" cy="1068.46779" r="15.5"/><circle cx="84.882251" cy="1127.15765" r="15.5"/><circle cx="84.175144" cy="1185.84751" r="15.5"/><circle cx="84.175144" cy="1243.83027" r="15.5"/><circle cx="84.882251" cy="1302.52013" r="15.5"/><circle cx="84.175144" cy="1361.20999" r="15.5"/><circle cx="84.175144" cy="1419.19275" r="15.5"/><circle cx="84.882251" cy="1477.88261" r="15.5"/><circle cx="84.175144" cy="1536.57248" r="15.5"/><circle cx="84.175144" cy="1594.55523" r="15.5"/><circle cx="84.175144" cy="1652.53799" r="15.5"/><circle cx="84.882251" cy="1711.22785" r="15.5"/><circle cx="84.175144" cy="1769.91771" r="15.5"/><circle cx="84.175144" cy="1827.90047" r="15.5"/><circle cx="84.882251" cy="1886.59033" r="15.5"/><circle cx="84.175144" cy="1945.28019" r="15.5"/><circle cx="84.175144" cy="2003.26295" r="15.5"/><circle cx="84.882251" cy="2061.95281" r="15.5"/><circle cx="84.175144" cy="2120.64268" r="15.5"/><circle cx="84.175144" cy="2178.62543" r="15.5"/><circle cx="84.882251" cy="2237.3153" r="15.5"/><circle cx="84.175144" cy="2296.00516" r="15.5"/><circle cx="84.175144" cy="2353.98791" r="15.5"/><circle cx="84.882251" cy="2412.67778" r="15.5"/><circle cx="147.814754" cy="75.689863" r="13.5"/><circle cx="147.814754" cy="133.672619" r="13.5"/><circle cx="147.814754" cy="191.655375" r="13.5"/><circle cx="147.814754" cy="251.052345" r="13.5"/><circle cx="147.814754" cy="309.035101" r="13.5"/><circle cx="147.814754" cy="367.017857" r="13.5"/><circle cx="147.814754" cy="426.414827" r="13.5"/><circle cx="147.814754" cy="484.397583" r="13.5"/><circle cx="147.814754" cy="542.380339" r="13.5"/><circle cx="147.814754" cy="601.777308" r="13.5"/><circle cx="147.814754" cy="659.760064" r="13.5"/><circle cx="147.814754" cy="717.74282" r="13.5"/><circle cx="148.521861" cy="776.432683" r="13.5"/><circle cx="147.814754" cy="835.122546" r="13.5"/><circle cx="147.814754" cy="893.105302" r="13.5"/><circle cx="148.521861" cy="951.795165" r="13.5"/><circle cx="147.814754" cy="1010.48503" r="13.5"/><circle cx="147.814754" cy="1068.46779" r="13.5"/><circle cx="148.521861" cy="1127.15765" r="13.5"/><circle cx="147.814754" cy="1185.84751" r="13.5"/><circle cx="147.814754" cy="1243.83027" r="13.5"/><circle cx="148.521861" cy="1302.52013" r="13.5"/><circle cx="147.814754" cy="1361.20999" r="13.5"/><circle cx="147.814754" cy="1419.19275" r="13.5"/><circle cx="147.814754" cy="1477.17551" r="13.5"/><circle cx="147.814754" cy="1536.57248" r="13.5"/><circle cx="147.814754" cy="1594.55523" r="13.5"/><circle cx="147.814754" cy="1652.53799" r="13.5"/><circle cx="147.814754" cy="1711.93496" r="13.5"/><circle cx="147.814754" cy="1769.91771" r="13.5"/><circle cx="147.814754" cy="1827.90047" r="13.5"/><circle cx="148.521861" cy="1886.59033" r="13.5"/><circle cx="147.814754" cy="1945.28019" r="13.5"/><circle cx="147.814754" cy="2003.26295" r="13.5"/><circle cx="148.521861" cy="2061.95281" r="13.5"/><circle cx="147.814754" cy="2120.64268" r="13.5"/><circle cx="147.814754" cy="2178.62543" r="13.5"/><circle cx="148.521861" cy="2237.3153" r="13.5"/><circle cx="147.814754" cy="2296.00516" r="13.5"/><circle cx="147.814754" cy="2353.98791" r="13.5"/><circle cx="148.521861" cy="2412.67778" r="13.5"/><circle cx="207.918831" cy="75.689863" r="12"/><circle cx="207.918831" cy="133.672619" r="12"/><circle cx="207.918831" cy="191.655375" r="12"/><circle cx="207.918831" cy="251.052345" r="12"/><circle cx="207.918831" cy="309.035101" r="12"/><circle cx="207.918831" cy="367.017857" r="12"/><circle cx="207.918831" cy="426.414827" r="12"/><circle cx="207.918831" cy="484.397583" r="12"/><circle cx="207.918831" cy="542.380339" r="12"/><circle cx="207.918831" cy="601.777308" r="12"/><circle cx="207.918831" cy="659.760064" r="12"/><circle cx="207.918831" cy="717.74282" r="12"/><circle cx="208.625937" cy="776.432683" r="12"/><circle cx="207.918831" cy="835.122546" r="12"/><circle cx="207.918831" cy="893.105302" r="12"/><circle cx="208.625937" cy="951.795165" r="12"/><circle cx="207.918831" cy="1010.48503" r="12"/><circle cx="207.918831" cy="1068.46779" r="12"/><circle cx="208.625937" cy="1127.15765" r="12"/><circle cx="207.918831" cy="1185.84751" r="12"/><circle cx="207.918831" cy="1243.83027" r="12"/><circle cx="208.625937" cy="1302.52013" r="12"/><circle cx="207.918831" cy="1361.20999" r="12"/><circle cx="207.918831" cy="1419.19275" r="12"/><circle cx="207.918831" cy="1477.17551" r="12"/><circle cx="207.918831" cy="1536.57248" r="12"/><circle cx="207.918831" cy="1594.55523" r="12"/><circle cx="207.918831" cy="1652.53799" r="12"/><circle cx="207.918831" cy="1711.93496" r="12"/><circle cx="207.918831" cy="1769.91771" r="12"/><circle cx="207.918831" cy="1827.90047" r="12"/><circle cx="208.625937" cy="1886.59033" r="12"/><circle cx="207.918831" cy="1945.28019" r="12"/></g></svg>