
<svg width="2211px" height="2612px" viewBox="0 0 2211 2612" version="1.1" xmlns="http://www.w3.org/2000/svg" xmlns:xlink="http://www.w3.org/1999/xlink">
    <g id="Page-1" stroke="none" stroke-width="1" fill="none" fill-rule="evenodd" opacity="0.247767857">
        <g id="character-detail-group" transform="translate(1105.219153, 1306.260717) rotate(-56.000000) translate(-1105.219153, -1306.260717) translate(-134.907627, 809.816839)" fill="#F9873D" fill-rule="nonzero">
            <g id="Group-4" transform="translate(1240.126780, 496.443878) rotate(-102.000000) translate(-1240.126780, -496.443878) translate(990.814028, -718.395011)">
                <circle id="Oval-Copy-4" cx="264.487373" cy="17" r="10.5"></circle>
                <circle id="Oval-Copy-5" cx="264.487373" cy="74.9827561" r="10.5"></circle>
                <circle id="Oval-Copy-6" cx="265.19448" cy="133.672619" r="10.5"></circle>
                <circle id="Oval-Copy-7" cx="264.487373" cy="192.362482" r="10.5"></circle>
                <circle id="Oval-Copy-8" cx="264.487373" cy="250.345238" r="10.5"></circle>
                <circle id="Oval-Copy-9" cx="265.19448" cy="309.035101" r="10.5"></circle>
                <circle id="Oval-Copy-10" cx="264.487373" cy="367.724964" r="10.5"></circle>
                <circle id="Oval-Copy-11" cx="264.487373" cy="425.70772" r="10.5"></circle>
                <circle id="Oval-Copy-12" cx="265.19448" cy="484.397583" r="10.5"></circle>
                <circle id="Oval-Copy-13" cx="264.487373" cy="543.087446" r="10.5"></circle>
                <circle id="Oval-Copy-14" cx="264.487373" cy="601.070202" r="10.5"></circle>
                <circle id="Oval-Copy-15" cx="265.19448" cy="659.760064" r="10.5"></circle>
                <circle id="Oval-Copy-16" cx="264.487373" cy="718.449927" r="10.5"></circle>
                <circle id="Oval-Copy-17" cx="264.487373" cy="776.432683" r="10.5"></circle>
                <circle id="Oval-Copy-18" cx="265.19448" cy="835.122546" r="10.5"></circle>
                <circle id="Oval-Copy-19" cx="264.487373" cy="893.812409" r="10.5"></circle>
                <circle id="Oval-Copy-20" cx="264.487373" cy="951.795165" r="10.5"></circle>
                <circle id="Oval-Copy-21" cx="264.487373" cy="1009.77792" r="10.5"></circle>
                <circle id="Oval-Copy-22" cx="265.19448" cy="1068.46779" r="10.5"></circle>
                <circle id="Oval-Copy-23" cx="264.487373" cy="1127.15765" r="10.5"></circle>
                <circle id="Oval-Copy-24" cx="264.487373" cy="1185.1404" r="10.5"></circle>
                <circle id="Oval-Copy-25" cx="265.19448" cy="1243.83027" r="10.5"></circle>
                <circle id="Oval-Copy-26" cx="264.487373" cy="1302.52013" r="10.5"></circle>
                <circle id="Oval-Copy-27" cx="264.487373" cy="1360.50289" r="10.5"></circle>
                <circle id="Oval-Copy-28" cx="265.19448" cy="1419.19275" r="10.5"></circle>
                <circle id="Oval-Copy-29" cx="264.487373" cy="1477.88261" r="10.5"></circle>
                <circle id="Oval-Copy-30" cx="264.487373" cy="1535.86537" r="10.5"></circle>
                <circle id="Oval-Copy-31" cx="265.19448" cy="1594.55523" r="10.5"></circle>
                <circle id="Oval-Copy-32" cx="264.487373" cy="1653.24509" r="10.5"></circle>
                <circle id="Oval-Copy-33" cx="264.487373" cy="1711.22785" r="10.5"></circle>
                <circle id="Oval-Copy-34" cx="265.19448" cy="1769.91771" r="10.5"></circle>
                <circle id="Oval-Copy-35" cx="264.487373" cy="1828.60758" r="10.5"></circle>
                <circle id="Oval-Copy-36" cx="264.487373" cy="1886.59033" r="10.5"></circle>
                <circle id="Oval-Copy-37" cx="265.19448" cy="1945.28019" r="10.5"></circle>
                <circle id="Oval-Copy-113" cx="318.227488" cy="17" r="8.5"></circle>
                <circle id="Oval-Copy-118" cx="367.724963" cy="16.2928932" r="7"></circle>
                <circle id="Oval-Copy-177" cx="413.686904" cy="17" r="5"></circle>
                <circle id="Oval-Copy-239" cx="456.820418" cy="17" r="3.5"></circle>
                <circle id="Oval-Copy-322" cx="496.418397" cy="17" r="1.5"></circle>
                <circle id="Oval-Copy-323" cx="496.418397" cy="74.9827561" r="1.5"></circle>
                <circle id="Oval-Copy-324" cx="497.125504" cy="133.672619" r="1.5"></circle>
                <circle id="Oval-Copy-325" cx="496.418397" cy="192.362482" r="1.5"></circle>
                <circle id="Oval-Copy-326" cx="496.418397" cy="250.345238" r="1.5"></circle>
                <circle id="Oval-Copy-327" cx="497.125504" cy="309.035101" r="1.5"></circle>
                <circle id="Oval-Copy-328" cx="496.418397" cy="367.724964" r="1.5"></circle>
                <circle id="Oval-Copy-329" cx="496.418397" cy="425.70772" r="1.5"></circle>
                <circle id="Oval-Copy-330" cx="497.125504" cy="484.397583" r="1.5"></circle>
                <circle id="Oval-Copy-331" cx="496.418397" cy="543.087446" r="1.5"></circle>
                <circle id="Oval-Copy-332" cx="496.418397" cy="601.070202" r="1.5"></circle>
                <circle id="Oval-Copy-333" cx="497.125504" cy="659.760064" r="1.5"></circle>
                <circle id="Oval-Copy-334" cx="496.418397" cy="718.449927" r="1.5"></circle>
                <circle id="Oval-Copy-335" cx="496.418397" cy="776.432683" r="1.5"></circle>
                <circle id="Oval-Copy-336" cx="496.418397" cy="834.415439" r="1.5"></circle>
                <circle id="Oval-Copy-337" cx="496.418397" cy="893.812409" r="1.5"></circle>
                <circle id="Oval-Copy-338" cx="496.418397" cy="951.795165" r="1.5"></circle>
                <circle id="Oval-Copy-339" cx="496.418397" cy="1009.77792" r="1.5"></circle>
                <circle id="Oval-Copy-340" cx="496.418397" cy="1069.17489" r="1.5"></circle>
                <circle id="Oval-Copy-341" cx="496.418397" cy="1127.15765" r="1.5"></circle>
                <circle id="Oval-Copy-342" cx="496.418397" cy="1185.1404" r="1.5"></circle>
                <circle id="Oval-Copy-343" cx="496.418397" cy="1244.53737" r="1.5"></circle>
                <circle id="Oval-Copy-344" cx="496.418397" cy="1302.52013" r="1.5"></circle>
                <circle id="Oval-Copy-345" cx="496.418397" cy="1360.50289" r="1.5"></circle>
                <circle id="Oval-Copy-346" cx="497.125504" cy="1419.19275" r="1.5"></circle>
                <circle id="Oval-Copy-347" cx="496.418397" cy="1477.88261" r="1.5"></circle>
                <circle id="Oval-Copy-348" cx="496.418397" cy="1535.86537" r="1.5"></circle>
                <circle id="Oval-Copy-349" cx="497.125504" cy="1594.55523" r="1.5"></circle>
                <circle id="Oval-Copy-350" cx="496.418397" cy="1653.24509" r="1.5"></circle>
                <circle id="Oval-Copy-351" cx="496.418397" cy="1711.22785" r="1.5"></circle>
                <circle id="Oval-Copy-352" cx="497.125504" cy="1769.91771" r="1.5"></circle>
                <circle id="Oval-Copy-353" cx="496.418397" cy="1828.60758" r="1.5"></circle>
                <circle id="Oval-Copy-354" cx="496.418397" cy="1886.59033" r="1.5"></circle>
                <circle id="Oval-Copy-355" cx="496.418397" cy="1944.57309" r="1.5"></circle>
                <circle id="Oval-Copy-356" cx="496.418397" cy="2003.97006" r="1.5"></circle>
                <circle id="Oval-Copy-357" cx="496.418397" cy="2061.95281" r="1.5"></circle>
                <circle id="Oval-Copy-358" cx="496.418397" cy="2119.93557" r="1.5"></circle>
                <circle id="Oval-Copy-359" cx="496.418397" cy="2179.33254" r="1.5"></circle>
                <circle id="Oval-Copy-360" cx="496.418397" cy="2237.3153" r="1.5"></circle>
                <circle id="Oval-Copy-361" cx="496.418397" cy="2295.29805" r="1.5"></circle>
                <circle id="Oval-Copy-362" cx="496.418397" cy="2354.69502" r="1.5"></circle>
                <circle id="Oval-Copy-363" cx="496.418397" cy="2412.67778" r="1.5"></circle>
                <circle id="Oval-Copy-240" cx="456.820418" cy="74.9827561" r="3.5"></circle>
                <circle id="Oval-Copy-241" cx="457.527524" cy="133.672619" r="3.5"></circle>
                <circle id="Oval-Copy-242" cx="456.820418" cy="192.362482" r="3.5"></circle>
                <circle id="Oval-Copy-243" cx="456.820418" cy="250.345238" r="3.5"></circle>
                <circle id="Oval-Copy-244" cx="457.527524" cy="309.035101" r="3.5"></circle>
                <circle id="Oval-Copy-245" cx="456.820418" cy="367.724964" r="3.5"></circle>
                <circle id="Oval-Copy-246" cx="456.820418" cy="425.70772" r="3.5"></circle>
                <circle id="Oval-Copy-247" cx="457.527524" cy="484.397583" r="3.5"></circle>
                <circle id="Oval-Copy-248" cx="456.820418" cy="543.087446" r="3.5"></circle>
                <circle id="Oval-Copy-249" cx="456.820418" cy="601.070202" r="3.5"></circle>
                <circle id="Oval-Copy-250" cx="457.527524" cy="659.760064" r="3.5"></circle>
                <circle id="Oval-Copy-251" cx="456.820418" cy="718.449927" r="3.5"></circle>
                <circle id="Oval-Copy-252" cx="456.820418" cy="776.432683" r="3.5"></circle>
                <circle id="Oval-Copy-253" cx="457.527524" cy="835.122546" r="3.5"></circle>
                <circle id="Oval-Copy-254" cx="456.820418" cy="893.812409" r="3.5"></circle>
                <circle id="Oval-Copy-255" cx="456.820418" cy="951.795165" r="3.5"></circle>
                <circle id="Oval-Copy-256" cx="456.820418" cy="1009.77792" r="3.5"></circle>
                <circle id="Oval-Copy-257" cx="457.527524" cy="1068.46779" r="3.5"></circle>
                <circle id="Oval-Copy-258" cx="456.820418" cy="1127.15765" r="3.5"></circle>
                <circle id="Oval-Copy-259" cx="456.820418" cy="1185.1404" r="3.5"></circle>
                <circle id="Oval-Copy-260" cx="457.527524" cy="1243.83027" r="3.5"></circle>
                <circle id="Oval-Copy-261" cx="456.820418" cy="1302.52013" r="3.5"></circle>
                <circle id="Oval-Copy-262" cx="456.820418" cy="1360.50289" r="3.5"></circle>
                <circle id="Oval-Copy-263" cx="457.527524" cy="1419.19275" r="3.5"></circle>
                <circle id="Oval-Copy-264" cx="456.820418" cy="1477.88261" r="3.5"></circle>
                <circle id="Oval-Copy-265" cx="456.820418" cy="1535.86537" r="3.5"></circle>
                <circle id="Oval-Copy-266" cx="457.527524" cy="1594.55523" r="3.5"></circle>
                <circle id="Oval-Copy-267" cx="456.820418" cy="1653.24509" r="3.5"></circle>
                <circle id="Oval-Copy-268" cx="456.820418" cy="1711.22785" r="3.5"></circle>
                <circle id="Oval-Copy-269" cx="457.527524" cy="1769.91771" r="3.5"></circle>
                <circle id="Oval-Copy-270" cx="456.820418" cy="1828.60758" r="3.5"></circle>
                <circle id="Oval-Copy-271" cx="456.820418" cy="1886.59033" r="3.5"></circle>
                <circle id="Oval-Copy-272" cx="457.527524" cy="1945.28019" r="3.5"></circle>
                <circle id="Oval-Copy-182" cx="414.394011" cy="75.6898629" r="5"></circle>
                <circle id="Oval-Copy-188" cx="414.394011" cy="133.672619" r="5"></circle>
                <circle id="Oval-Copy-194" cx="413.686904" cy="192.362482" r="5"></circle>
                <circle id="Oval-Copy-201" cx="414.394011" cy="251.052345" r="5"></circle>
                <circle id="Oval-Copy-202" cx="414.394011" cy="309.035101" r="5"></circle>
                <circle id="Oval-Copy-203" cx="413.686904" cy="367.724964" r="5"></circle>
                <circle id="Oval-Copy-204" cx="413.686904" cy="425.70772" r="5"></circle>
                <circle id="Oval-Copy-205" cx="414.394011" cy="484.397583" r="5"></circle>
                <circle id="Oval-Copy-206" cx="414.394011" cy="542.380339" r="5"></circle>
                <circle id="Oval-Copy-207" cx="413.686904" cy="601.070202" r="5"></circle>
                <circle id="Oval-Copy-208" cx="414.394011" cy="659.760064" r="5"></circle>
                <circle id="Oval-Copy-209" cx="414.394011" cy="717.74282" r="5"></circle>
                <circle id="Oval-Copy-210" cx="413.686904" cy="776.432683" r="5"></circle>
                <circle id="Oval-Copy-211" cx="414.394011" cy="835.122546" r="5"></circle>
                <circle id="Oval-Copy-212" cx="414.394011" cy="893.105302" r="5"></circle>
                <circle id="Oval-Copy-213" cx="413.686904" cy="951.795165" r="5"></circle>
                <circle id="Oval-Copy-214" cx="414.394011" cy="1010.48503" r="5"></circle>
                <circle id="Oval-Copy-215" cx="414.394011" cy="1068.46779" r="5"></circle>
                <circle id="Oval-Copy-216" cx="413.686904" cy="1127.15765" r="5"></circle>
                <circle id="Oval-Copy-217" cx="414.394011" cy="1185.84751" r="5"></circle>
                <circle id="Oval-Copy-218" cx="414.394011" cy="1243.83027" r="5"></circle>
                <circle id="Oval-Copy-219" cx="413.686904" cy="1302.52013" r="5"></circle>
                <circle id="Oval-Copy-220" cx="414.394011" cy="1361.20999" r="5"></circle>
                <circle id="Oval-Copy-221" cx="414.394011" cy="1419.19275" r="5"></circle>
                <circle id="Oval-Copy-222" cx="413.686904" cy="1477.88261" r="5"></circle>
                <circle id="Oval-Copy-223" cx="413.686904" cy="1535.86537" r="5"></circle>
                <circle id="Oval-Copy-224" cx="414.394011" cy="1594.55523" r="5"></circle>
                <circle id="Oval-Copy-225" cx="413.686904" cy="1653.24509" r="5"></circle>
                <circle id="Oval-Copy-226" cx="413.686904" cy="1711.22785" r="5"></circle>
                <circle id="Oval-Copy-227" cx="414.394011" cy="1769.91771" r="5"></circle>
                <circle id="Oval-Copy-228" cx="414.394011" cy="1827.90047" r="5"></circle>
                <circle id="Oval-Copy-229" cx="413.686904" cy="1886.59033" r="5"></circle>
                <circle id="Oval-Copy-230" cx="414.394011" cy="1945.28019" r="5"></circle>
                <circle id="Oval-Copy-114" cx="318.227488" cy="74.9827561" r="8.5"></circle>
                <circle id="Oval-Copy-123" cx="367.724963" cy="75.6898629" r="7"></circle>
                <circle id="Oval-Copy-115" cx="317.520382" cy="133.672619" r="8.5"></circle>
                <circle id="Oval-Copy-128" cx="367.724963" cy="133.672619" r="7"></circle>
                <circle id="Oval-Copy-116" cx="318.227488" cy="192.362482" r="8.5"></circle>
                <circle id="Oval-Copy-135" cx="367.724963" cy="191.655375" r="7"></circle>
                <circle id="Oval-Copy-117" cx="318.227488" cy="250.345238" r="8.5"></circle>
                <circle id="Oval-Copy-141" cx="367.724963" cy="251.052345" r="7"></circle>
                <circle id="Oval-Copy-119" cx="317.520382" cy="309.035101" r="8.5"></circle>
                <circle id="Oval-Copy-144" cx="367.724963" cy="310.449315" r="7"></circle>
                <circle id="Oval-Copy-120" cx="318.227488" cy="367.724964" r="8.5"></circle>
                <circle id="Oval-Copy-150" cx="367.724963" cy="367.017857" r="7"></circle>
                <circle id="Oval-Copy-121" cx="318.227488" cy="425.70772" r="8.5"></circle>
                <circle id="Oval-Copy-154" cx="367.724963" cy="426.414827" r="7"></circle>
                <circle id="Oval-Copy-122" cx="317.520382" cy="484.397583" r="8.5"></circle>
                <circle id="Oval-Copy-163" cx="367.724963" cy="484.397583" r="7"></circle>
                <circle id="Oval-Copy-124" cx="318.227488" cy="543.087446" r="8.5"></circle>
                <circle id="Oval-Copy-164" cx="367.724963" cy="542.380339" r="7"></circle>
                <circle id="Oval-Copy-125" cx="318.227488" cy="601.070202" r="8.5"></circle>
                <circle id="Oval-Copy-165" cx="367.724963" cy="601.777308" r="7"></circle>
                <circle id="Oval-Copy-126" cx="317.520382" cy="659.760064" r="8.5"></circle>
                <circle id="Oval-Copy-166" cx="367.724963" cy="659.760064" r="7"></circle>
                <circle id="Oval-Copy-127" cx="318.227488" cy="718.449927" r="8.5"></circle>
                <circle id="Oval-Copy-167" cx="367.724963" cy="717.74282" r="7"></circle>
                <circle id="Oval-Copy-129" cx="318.227488" cy="776.432683" r="8.5"></circle>
                <circle id="Oval-Copy-168" cx="367.724963" cy="777.13979" r="7"></circle>
                <circle id="Oval-Copy-130" cx="317.520382" cy="835.122546" r="8.5"></circle>
                <circle id="Oval-Copy-169" cx="367.724963" cy="835.122546" r="7"></circle>
                <circle id="Oval-Copy-131" cx="318.227488" cy="893.812409" r="8.5"></circle>
                <circle id="Oval-Copy-170" cx="367.724963" cy="893.105302" r="7"></circle>
                <circle id="Oval-Copy-132" cx="318.227488" cy="951.795165" r="8.5"></circle>
                <circle id="Oval-Copy-171" cx="368.43207" cy="951.795165" r="7"></circle>
                <circle id="Oval-Copy-133" cx="317.520382" cy="1010.48503" r="8.5"></circle>
                <circle id="Oval-Copy-172" cx="367.724963" cy="1010.48503" r="7"></circle>
                <circle id="Oval-Copy-134" cx="317.520382" cy="1068.46779" r="8.5"></circle>
                <circle id="Oval-Copy-173" cx="367.724963" cy="1068.46779" r="7"></circle>
                <circle id="Oval-Copy-136" cx="318.227488" cy="1127.15765" r="8.5"></circle>
                <circle id="Oval-Copy-174" cx="367.724963" cy="1126.45054" r="7"></circle>
                <circle id="Oval-Copy-137" cx="318.227488" cy="1185.1404" r="8.5"></circle>
                <circle id="Oval-Copy-175" cx="367.724963" cy="1185.84751" r="7"></circle>
                <circle id="Oval-Copy-138" cx="317.520382" cy="1243.83027" r="8.5"></circle>
                <circle id="Oval-Copy-176" cx="367.724963" cy="1243.83027" r="7"></circle>
                <circle id="Oval-Copy-139" cx="318.227488" cy="1302.52013" r="8.5"></circle>
                <circle id="Oval-Copy-140" cx="318.227488" cy="1360.50289" r="8.5"></circle>
                <circle id="Oval-Copy-178" cx="367.724963" cy="1301.81302" r="7"></circle>
                <circle id="Oval-Copy-142" cx="317.520382" cy="1419.19275" r="8.5"></circle>
                <circle id="Oval-Copy-179" cx="367.724963" cy="1361.20999" r="7"></circle>
                <circle id="Oval-Copy-143" cx="318.227488" cy="1477.88261" r="8.5"></circle>
                <circle id="Oval-Copy-180" cx="367.724963" cy="1419.19275" r="7"></circle>
                <circle id="Oval-Copy-162" cx="318.227488" cy="1535.86537" r="8.5"></circle>
                <circle id="Oval-Copy-181" cx="367.724963" cy="1477.17551" r="7"></circle>
                <circle id="Oval-Copy-145" cx="317.520382" cy="1594.55523" r="8.5"></circle>
                <circle id="Oval-Copy-146" cx="318.227488" cy="1653.24509" r="8.5"></circle>
                <circle id="Oval-Copy-183" cx="367.724963" cy="1536.57248" r="7"></circle>
                <circle id="Oval-Copy-147" cx="318.227488" cy="1711.22785" r="8.5"></circle>
                <circle id="Oval-Copy-184" cx="367.724963" cy="1594.55523" r="7"></circle>
                <circle id="Oval-Copy-148" cx="317.520382" cy="1769.91771" r="8.5"></circle>
                <circle id="Oval-Copy-185" cx="367.724963" cy="1652.53799" r="7"></circle>
                <circle id="Oval-Copy-149" cx="318.227488" cy="1828.60758" r="8.5"></circle>
                <circle id="Oval-Copy-186" cx="367.724963" cy="1711.93496" r="7"></circle>
                <circle id="Oval-Copy-151" cx="318.227488" cy="1886.59033" r="8.5"></circle>
                <circle id="Oval-Copy-187" cx="367.724963" cy="1769.91771" r="7"></circle>
                <circle id="Oval-Copy-152" cx="317.520382" cy="1945.28019" r="8.5"></circle>
                <circle id="Oval-Copy-189" cx="367.724963" cy="1827.90047" r="7"></circle>
                <circle id="Oval-Copy-190" cx="367.724963" cy="1887.29744" r="7"></circle>
                <circle id="Oval-Copy-191" cx="367.724963" cy="1945.28019" r="7"></circle>
                <circle id="Oval-Copy-45" cx="264.487373" cy="2412.67778" r="10.5"></circle>
                <circle id="Oval-Copy-280" cx="456.820418" cy="2412.67778" r="3.5"></circle>
                <circle id="Oval-Copy-238" cx="413.686904" cy="2412.67778" r="5"></circle>
                <circle id="Oval-Copy-161" cx="318.227488" cy="2412.67778" r="8.5"></circle>
                <circle id="Oval-Copy-200" cx="367.724963" cy="2411.97067" r="7"></circle>
                <circle id="Oval-Copy-321" cx="208.625937" cy="2412.67778" r="12"></circle>
                <circle id="Oval-Copy-44" cx="265.19448" cy="2353.98791" r="10.5"></circle>
                <circle id="Oval-Copy-160" cx="317.520382" cy="2353.98791" r="8.5"></circle>
                <circle id="Oval-Copy-199" cx="367.724963" cy="2353.98791" r="7"></circle>
                <circle id="Oval-Copy-320" cx="207.918831" cy="2353.98791" r="12"></circle>
                <circle id="Oval-Copy-279" cx="457.527524" cy="2353.98791" r="3.5"></circle>
                <circle id="Oval-Copy-237" cx="414.394011" cy="2353.98791" r="5"></circle>
                <circle id="Oval-Copy-43" cx="264.487373" cy="2295.29805" r="10.5"></circle>
                <circle id="Oval-Copy-278" cx="456.820418" cy="2295.29805" r="3.5"></circle>
                <circle id="Oval-Copy-236" cx="414.394011" cy="2296.00516" r="5"></circle>
                <circle id="Oval-Copy-159" cx="318.227488" cy="2295.29805" r="8.5"></circle>
                <circle id="Oval-Copy-198" cx="367.724963" cy="2296.00516" r="7"></circle>
                <circle id="Oval-Copy-319" cx="207.918831" cy="2296.00516" r="12"></circle>
                <circle id="Oval-Copy-42" cx="264.487373" cy="2237.3153" r="10.5"></circle>
                <circle id="Oval-Copy-277" cx="456.820418" cy="2237.3153" r="3.5"></circle>
                <circle id="Oval-Copy-235" cx="413.686904" cy="2237.3153" r="5"></circle>
                <circle id="Oval-Copy-158" cx="318.227488" cy="2237.3153" r="8.5"></circle>
                <circle id="Oval-Copy-197" cx="367.724963" cy="2236.60819" r="7"></circle>
                <circle id="Oval-Copy-318" cx="208.625937" cy="2237.3153" r="12"></circle>
                <circle id="Oval-Copy-41" cx="265.19448" cy="2178.62543" r="10.5"></circle>
                <circle id="Oval-Copy-317" cx="207.918831" cy="2178.62543" r="12"></circle>
                <circle id="Oval-Copy-276" cx="457.527524" cy="2178.62543" r="3.5"></circle>
                <circle id="Oval-Copy-234" cx="414.394011" cy="2178.62543" r="5"></circle>
                <circle id="Oval-Copy-157" cx="317.520382" cy="2178.62543" r="8.5"></circle>
                <circle id="Oval-Copy-196" cx="367.724963" cy="2178.62543" r="7"></circle>
                <circle id="Oval-Copy-40" cx="264.487373" cy="2119.93557" r="10.5"></circle>
                <circle id="Oval-Copy-275" cx="456.820418" cy="2119.93557" r="3.5"></circle>
                <circle id="Oval-Copy-233" cx="414.394011" cy="2120.64268" r="5"></circle>
                <circle id="Oval-Copy-156" cx="317.520382" cy="2120.64268" r="8.5"></circle>
                <circle id="Oval-Copy-195" cx="367.724963" cy="2120.64268" r="7"></circle>
                <circle id="Oval-Copy-316" cx="207.918831" cy="2120.64268" r="12"></circle>
                <circle id="Oval-Copy-39" cx="264.487373" cy="2061.95281" r="10.5"></circle>
                <circle id="Oval-Copy-155" cx="318.227488" cy="2061.95281" r="8.5"></circle>
                <circle id="Oval-Copy-193" cx="367.724963" cy="2062.65992" r="7"></circle>
                <circle id="Oval-Copy-315" cx="208.625937" cy="2061.95281" r="12"></circle>
                <circle id="Oval-Copy-274" cx="456.820418" cy="2061.95281" r="3.5"></circle>
                <circle id="Oval-Copy-232" cx="413.686904" cy="2061.95281" r="5"></circle>
                <circle id="Oval-Copy-38" cx="264.487373" cy="2003.97006" r="10.5"></circle>
                <circle id="Oval-Copy-273" cx="456.820418" cy="2003.97006" r="3.5"></circle>
                <circle id="Oval-Copy-231" cx="414.394011" cy="2003.26295" r="5"></circle>
                <circle id="Oval-Copy-153" cx="318.227488" cy="2003.97006" r="8.5"></circle>
                <circle id="Oval-Copy-192" cx="367.724963" cy="2003.26295" r="7"></circle>
                <circle id="Oval-Copy-314" cx="207.918831" cy="2003.26295" r="12"></circle>
                <circle id="Oval-Copy-4" cx="208.625937" cy="17" r="12"></circle>
                <circle id="Oval-Copy-46" cx="148.521861" cy="17" r="13.5"></circle>
                <circle id="Oval-Copy-88" cx="84.882251" cy="17" r="15.5"></circle>
                <circle id="Oval-Copy-381" cx="17.7071068" cy="17" r="17"></circle>
                <circle id="Oval-Copy-382" cx="17.7071068" cy="74.9827561" r="17"></circle>
                <circle id="Oval-Copy-383" cx="17" cy="133.672619" r="17"></circle>
                <circle id="Oval-Copy-384" cx="17.7071068" cy="192.362482" r="17"></circle>
                <circle id="Oval-Copy-385" cx="17.7071068" cy="250.345238" r="17"></circle>
                <circle id="Oval-Copy-386" cx="17" cy="309.035101" r="17"></circle>
                <circle id="Oval-Copy-387" cx="17.7071068" cy="367.724964" r="17"></circle>
                <circle id="Oval-Copy-388" cx="17.7071068" cy="425.70772" r="17"></circle>
                <circle id="Oval-Copy-389" cx="17" cy="484.397583" r="17"></circle>
                <circle id="Oval-Copy-390" cx="17.7071068" cy="543.087446" r="17"></circle>
                <circle id="Oval-Copy-391" cx="17.7071068" cy="601.070202" r="17"></circle>
                <circle id="Oval-Copy-392" cx="17" cy="659.760064" r="17"></circle>
                <circle id="Oval-Copy-393" cx="17.7071068" cy="718.449927" r="17"></circle>
                <circle id="Oval-Copy-394" cx="17.7071068" cy="776.432683" r="17"></circle>
                <circle id="Oval-Copy-395" cx="17" cy="835.122546" r="17"></circle>
                <circle id="Oval-Copy-396" cx="17.7071068" cy="893.812409" r="17"></circle>
                <circle id="Oval-Copy-397" cx="17.7071068" cy="951.795165" r="17"></circle>
                <circle id="Oval-Copy-398" cx="17" cy="1010.48503" r="17"></circle>
                <circle id="Oval-Copy-399" cx="17" cy="1068.46779" r="17"></circle>
                <circle id="Oval-Copy-400" cx="17.7071068" cy="1127.15765" r="17"></circle>
                <circle id="Oval-Copy-401" cx="17.7071068" cy="1185.1404" r="17"></circle>
                <circle id="Oval-Copy-402" cx="17" cy="1243.83027" r="17"></circle>
                <circle id="Oval-Copy-403" cx="17.7071068" cy="1302.52013" r="17"></circle>
                <circle id="Oval-Copy-404" cx="17.7071068" cy="1360.50289" r="17"></circle>
                <circle id="Oval-Copy-405" cx="17" cy="1419.19275" r="17"></circle>
                <circle id="Oval-Copy-406" cx="17.7071068" cy="1477.88261" r="17"></circle>
                <circle id="Oval-Copy-407" cx="17.7071068" cy="1535.86537" r="17"></circle>
                <circle id="Oval-Copy-408" cx="17" cy="1594.55523" r="17"></circle>
                <circle id="Oval-Copy-409" cx="17.7071068" cy="1653.24509" r="17"></circle>
                <circle id="Oval-Copy-410" cx="17.7071068" cy="1711.22785" r="17"></circle>
                <circle id="Oval-Copy-411" cx="17" cy="1769.91771" r="17"></circle>
                <circle id="Oval-Copy-412" cx="17.7071068" cy="1828.60758" r="17"></circle>
                <circle id="Oval-Copy-413" cx="17.7071068" cy="1886.59033" r="17"></circle>
                <circle id="Oval-Copy-414" cx="17" cy="1945.28019" r="17"></circle>
                <circle id="Oval-Copy-415" cx="17.7071068" cy="2003.97006" r="17"></circle>
                <circle id="Oval-Copy-416" cx="17.7071068" cy="2061.95281" r="17"></circle>
                <circle id="Oval-Copy-417" cx="17" cy="2120.64268" r="17"></circle>
                <circle id="Oval-Copy-418" cx="17" cy="2178.62543" r="17"></circle>
                <circle id="Oval-Copy-419" cx="17.7071068" cy="2237.3153" r="17"></circle>
                <circle id="Oval-Copy-420" cx="17.7071068" cy="2295.29805" r="17"></circle>
                <circle id="Oval-Copy-421" cx="17" cy="2353.98791" r="17"></circle>
                <circle id="Oval-Copy-422" cx="17.7071068" cy="2412.67778" r="17"></circle>
                <circle id="Oval-Copy-89" cx="84.1751442" cy="75.6898629" r="15.5"></circle>
                <circle id="Oval-Copy-90" cx="84.1751442" cy="133.672619" r="15.5"></circle>
                <circle id="Oval-Copy-91" cx="84.882251" cy="192.362482" r="15.5"></circle>
                <circle id="Oval-Copy-92" cx="84.1751442" cy="251.052345" r="15.5"></circle>
                <circle id="Oval-Copy-93" cx="84.1751442" cy="309.035101" r="15.5"></circle>
                <circle id="Oval-Copy-94" cx="84.882251" cy="367.724964" r="15.5"></circle>
                <circle id="Oval-Copy-95" cx="84.1751442" cy="426.414827" r="15.5"></circle>
                <circle id="Oval-Copy-96" cx="84.1751442" cy="484.397583" r="15.5"></circle>
                <circle id="Oval-Copy-97" cx="84.1751442" cy="542.380339" r="15.5"></circle>
                <circle id="Oval-Copy-98" cx="84.882251" cy="601.070202" r="15.5"></circle>
                <circle id="Oval-Copy-99" cx="84.1751442" cy="659.760064" r="15.5"></circle>
                <circle id="Oval-Copy-100" cx="84.1751442" cy="717.74282" r="15.5"></circle>
                <circle id="Oval-Copy-101" cx="84.882251" cy="776.432683" r="15.5"></circle>
                <circle id="Oval-Copy-102" cx="84.1751442" cy="835.122546" r="15.5"></circle>
                <circle id="Oval-Copy-103" cx="84.1751442" cy="893.105302" r="15.5"></circle>
                <circle id="Oval-Copy-104" cx="84.882251" cy="951.795165" r="15.5"></circle>
                <circle id="Oval-Copy-105" cx="84.1751442" cy="1010.48503" r="15.5"></circle>
                <circle id="Oval-Copy-106" cx="84.1751442" cy="1068.46779" r="15.5"></circle>
                <circle id="Oval-Copy-107" cx="84.882251" cy="1127.15765" r="15.5"></circle>
                <circle id="Oval-Copy-108" cx="84.1751442" cy="1185.84751" r="15.5"></circle>
                <circle id="Oval-Copy-109" cx="84.1751442" cy="1243.83027" r="15.5"></circle>
                <circle id="Oval-Copy-110" cx="84.882251" cy="1302.52013" r="15.5"></circle>
                <circle id="Oval-Copy-111" cx="84.1751442" cy="1361.20999" r="15.5"></circle>
                <circle id="Oval-Copy-112" cx="84.1751442" cy="1419.19275" r="15.5"></circle>
                <circle id="Oval-Copy-364" cx="84.882251" cy="1477.88261" r="15.5"></circle>
                <circle id="Oval-Copy-365" cx="84.1751442" cy="1536.57248" r="15.5"></circle>
                <circle id="Oval-Copy-366" cx="84.1751442" cy="1594.55523" r="15.5"></circle>
                <circle id="Oval-Copy-367" cx="84.1751442" cy="1652.53799" r="15.5"></circle>
                <circle id="Oval-Copy-368" cx="84.882251" cy="1711.22785" r="15.5"></circle>
                <circle id="Oval-Copy-369" cx="84.1751442" cy="1769.91771" r="15.5"></circle>
                <circle id="Oval-Copy-370" cx="84.1751442" cy="1827.90047" r="15.5"></circle>
                <circle id="Oval-Copy-371" cx="84.882251" cy="1886.59033" r="15.5"></circle>
                <circle id="Oval-Copy-372" cx="84.1751442" cy="1945.28019" r="15.5"></circle>
                <circle id="Oval-Copy-373" cx="84.1751442" cy="2003.26295" r="15.5"></circle>
                <circle id="Oval-Copy-374" cx="84.882251" cy="2061.95281" r="15.5"></circle>
                <circle id="Oval-Copy-375" cx="84.1751442" cy="2120.64268" r="15.5"></circle>
                <circle id="Oval-Copy-376" cx="84.1751442" cy="2178.62543" r="15.5"></circle>
                <circle id="Oval-Copy-377" cx="84.882251" cy="2237.3153" r="15.5"></circle>
                <circle id="Oval-Copy-378" cx="84.1751442" cy="2296.00516" r="15.5"></circle>
                <circle id="Oval-Copy-379" cx="84.1751442" cy="2353.98791" r="15.5"></circle>
                <circle id="Oval-Copy-380" cx="84.882251" cy="2412.67778" r="15.5"></circle>
                <circle id="Oval-Copy-47" cx="147.814754" cy="75.6898629" r="13.5"></circle>
                <circle id="Oval-Copy-48" cx="147.814754" cy="133.672619" r="13.5"></circle>
                <circle id="Oval-Copy-49" cx="147.814754" cy="191.655375" r="13.5"></circle>
                <circle id="Oval-Copy-50" cx="147.814754" cy="251.052345" r="13.5"></circle>
                <circle id="Oval-Copy-51" cx="147.814754" cy="309.035101" r="13.5"></circle>
                <circle id="Oval-Copy-52" cx="147.814754" cy="367.017857" r="13.5"></circle>
                <circle id="Oval-Copy-53" cx="147.814754" cy="426.414827" r="13.5"></circle>
                <circle id="Oval-Copy-54" cx="147.814754" cy="484.397583" r="13.5"></circle>
                <circle id="Oval-Copy-55" cx="147.814754" cy="542.380339" r="13.5"></circle>
                <circle id="Oval-Copy-56" cx="147.814754" cy="601.777308" r="13.5"></circle>
                <circle id="Oval-Copy-57" cx="147.814754" cy="659.760064" r="13.5"></circle>
                <circle id="Oval-Copy-58" cx="147.814754" cy="717.74282" r="13.5"></circle>
                <circle id="Oval-Copy-59" cx="148.521861" cy="776.432683" r="13.5"></circle>
                <circle id="Oval-Copy-60" cx="147.814754" cy="835.122546" r="13.5"></circle>
                <circle id="Oval-Copy-61" cx="147.814754" cy="893.105302" r="13.5"></circle>
                <circle id="Oval-Copy-62" cx="148.521861" cy="951.795165" r="13.5"></circle>
                <circle id="Oval-Copy-63" cx="147.814754" cy="1010.48503" r="13.5"></circle>
                <circle id="Oval-Copy-64" cx="147.814754" cy="1068.46779" r="13.5"></circle>
                <circle id="Oval-Copy-65" cx="148.521861" cy="1127.15765" r="13.5"></circle>
                <circle id="Oval-Copy-66" cx="147.814754" cy="1185.84751" r="13.5"></circle>
                <circle id="Oval-Copy-67" cx="147.814754" cy="1243.83027" r="13.5"></circle>
                <circle id="Oval-Copy-68" cx="148.521861" cy="1302.52013" r="13.5"></circle>
                <circle id="Oval-Copy-69" cx="147.814754" cy="1361.20999" r="13.5"></circle>
                <circle id="Oval-Copy-70" cx="147.814754" cy="1419.19275" r="13.5"></circle>
                <circle id="Oval-Copy-71" cx="147.814754" cy="1477.17551" r="13.5"></circle>
                <circle id="Oval-Copy-72" cx="147.814754" cy="1536.57248" r="13.5"></circle>
                <circle id="Oval-Copy-73" cx="147.814754" cy="1594.55523" r="13.5"></circle>
                <circle id="Oval-Copy-74" cx="147.814754" cy="1652.53799" r="13.5"></circle>
                <circle id="Oval-Copy-75" cx="147.814754" cy="1711.93496" r="13.5"></circle>
                <circle id="Oval-Copy-76" cx="147.814754" cy="1769.91771" r="13.5"></circle>
                <circle id="Oval-Copy-77" cx="147.814754" cy="1827.90047" r="13.5"></circle>
                <circle id="Oval-Copy-78" cx="148.521861" cy="1886.59033" r="13.5"></circle>
                <circle id="Oval-Copy-79" cx="147.814754" cy="1945.28019" r="13.5"></circle>
                <circle id="Oval-Copy-80" cx="147.814754" cy="2003.26295" r="13.5"></circle>
                <circle id="Oval-Copy-81" cx="148.521861" cy="2061.95281" r="13.5"></circle>
                <circle id="Oval-Copy-82" cx="147.814754" cy="2120.64268" r="13.5"></circle>
                <circle id="Oval-Copy-83" cx="147.814754" cy="2178.62543" r="13.5"></circle>
                <circle id="Oval-Copy-84" cx="148.521861" cy="2237.3153" r="13.5"></circle>
                <circle id="Oval-Copy-85" cx="147.814754" cy="2296.00516" r="13.5"></circle>
                <circle id="Oval-Copy-86" cx="147.814754" cy="2353.98791" r="13.5"></circle>
                <circle id="Oval-Copy-87" cx="148.521861" cy="2412.67778" r="13.5"></circle>
                <circle id="Oval-Copy-281" cx="207.918831" cy="75.6898629" r="12"></circle>
                <circle id="Oval-Copy-282" cx="207.918831" cy="133.672619" r="12"></circle>
                <circle id="Oval-Copy-283" cx="207.918831" cy="191.655375" r="12"></circle>
                <circle id="Oval-Copy-284" cx="207.918831" cy="251.052345" r="12"></circle>
                <circle id="Oval-Copy-285" cx="207.918831" cy="309.035101" r="12"></circle>
                <circle id="Oval-Copy-286" cx="207.918831" cy="367.017857" r="12"></circle>
                <circle id="Oval-Copy-287" cx="207.918831" cy="426.414827" r="12"></circle>
                <circle id="Oval-Copy-288" cx="207.918831" cy="484.397583" r="12"></circle>
                <circle id="Oval-Copy-289" cx="207.918831" cy="542.380339" r="12"></circle>
                <circle id="Oval-Copy-290" cx="207.918831" cy="601.777308" r="12"></circle>
                <circle id="Oval-Copy-291" cx="207.918831" cy="659.760064" r="12"></circle>
                <circle id="Oval-Copy-292" cx="207.918831" cy="717.74282" r="12"></circle>
                <circle id="Oval-Copy-293" cx="208.625937" cy="776.432683" r="12"></circle>
                <circle id="Oval-Copy-294" cx="207.918831" cy="835.122546" r="12"></circle>
                <circle id="Oval-Copy-295" cx="207.918831" cy="893.105302" r="12"></circle>
                <circle id="Oval-Copy-296" cx="208.625937" cy="951.795165" r="12"></circle>
                <circle id="Oval-Copy-297" cx="207.918831" cy="1010.48503" r="12"></circle>
                <circle id="Oval-Copy-298" cx="207.918831" cy="1068.46779" r="12"></circle>
                <circle id="Oval-Copy-299" cx="208.625937" cy="1127.15765" r="12"></circle>
                <circle id="Oval-Copy-300" cx="207.918831" cy="1185.84751" r="12"></circle>
                <circle id="Oval-Copy-301" cx="207.918831" cy="1243.83027" r="12"></circle>
                <circle id="Oval-Copy-302" cx="208.625937" cy="1302.52013" r="12"></circle>
                <circle id="Oval-Copy-303" cx="207.918831" cy="1361.20999" r="12"></circle>
                <circle id="Oval-Copy-304" cx="207.918831" cy="1419.19275" r="12"></circle>
                <circle id="Oval-Copy-305" cx="207.918831" cy="1477.17551" r="12"></circle>
                <circle id="Oval-Copy-306" cx="207.918831" cy="1536.57248" r="12"></circle>
                <circle id="Oval-Copy-307" cx="207.918831" cy="1594.55523" r="12"></circle>
                <circle id="Oval-Copy-308" cx="207.918831" cy="1652.53799" r="12"></circle>
                <circle id="Oval-Copy-309" cx="207.918831" cy="1711.93496" r="12"></circle>
                <circle id="Oval-Copy-310" cx="207.918831" cy="1769.91771" r="12"></circle>
                <circle id="Oval-Copy-311" cx="207.918831" cy="1827.90047" r="12"></circle>
                <circle id="Oval-Copy-312" cx="208.625937" cy="1886.59033" r="12"></circle>
                <circle id="Oval-Copy-313" cx="207.918831" cy="1945.28019" r="12"></circle>
            </g>
        </g>
    </g>
</svg>